<svg width="120" height="75" viewBox="0 0 120 75" fill="none" xmlns="http://www.w3.org/2000/svg">
<path fill-rule="evenodd" clip-rule="evenodd" d="M4.27141e-06 74.2925H119.691V14.8139L103.906 6.326L95.9841 0H4.79383C2.14255 0.00320968 -0.00349423 2.15749 4.27141e-06 4.81103V74.2925Z" fill="#22202E"/>
<path fill-rule="evenodd" clip-rule="evenodd" d="M119.883 14.3536L98.0495 0.548188C95.7142 -0.93031 92.6705 0.75565 92.6705 3.52882V15.1129H92.3976L69.3652 0.548188C67.0288 -0.93031 63.9863 0.75565 63.9863 3.52882V14.8421L41.379 0.548188C39.0411 -0.93031 36 0.75565 36 3.52882V74.4337H119.881V14.3536H119.883Z" fill="#9698AA"/>
<path d="M50.9787 25.3984C50.2425 25.3984 49.6492 25.8016 49.6492 26.7089C49.6492 27.6163 50.2425 28.0194 50.9787 28.0194C51.715 28.0194 52.3072 27.5958 52.3072 26.71C52.3072 25.8243 51.7126 25.3996 50.9787 25.3996V25.3984ZM50.9787 27.396C50.6492 27.396 50.4027 27.1495 50.4027 26.7089C50.4027 26.2308 50.6492 26.0207 50.9787 26.0207C51.3082 26.0207 51.5537 26.2297 51.5537 26.7089C51.5537 27.1495 51.3071 27.396 50.9787 27.396ZM55.7682 25.4223C55.7682 25.4359 55.7786 25.4461 55.7924 25.4461H56.3523C56.3973 25.4461 56.433 25.4825 56.433 25.5245V26.0014C56.433 26.0151 56.4226 26.0264 56.4088 26.0264H55.7935C55.7797 26.0264 55.7693 26.0378 55.7693 26.0514V26.9769C55.7693 27.3324 55.9053 27.438 56.1334 27.438C56.2406 27.438 56.4076 27.3732 56.433 27.3732C56.4468 27.3732 56.4583 27.3846 56.4583 27.3971V27.8536C56.4583 27.8877 56.4376 27.9115 56.4168 27.9229C56.3155 27.9774 56.1438 28.0137 55.8926 28.0137C55.4525 28.0137 55.0423 27.7957 55.0423 27.0962V25.4859C55.0423 25.3428 55.0988 25.2077 55.1887 25.1111C55.3073 24.9817 55.691 24.7398 55.7405 24.7398C55.7624 24.7398 55.7705 24.7455 55.7705 24.7659V25.4211L55.7682 25.4223ZM46.876 25.5279C46.876 25.4836 46.9128 25.4473 46.9589 25.4473H47.9279C48.8795 25.4473 49.3726 26.0105 49.3726 26.7396C49.3726 27.4686 48.8208 27.974 47.9117 27.974H47.6283C47.6145 27.974 47.603 27.9853 47.603 27.999V29.1811C47.603 29.2004 47.5949 29.2072 47.573 29.2072C47.5235 29.2072 47.1398 28.9653 47.0211 28.8359C46.9313 28.7394 46.8748 28.6031 46.8748 28.4611V25.529L46.876 25.5279ZM48.6537 26.7032C48.6537 26.3932 48.4498 26.1025 47.9129 26.1025H47.6283C47.6145 26.1025 47.6041 26.1139 47.6041 26.1263V27.2926C47.6041 27.3062 47.6156 27.3176 47.6283 27.3176H47.9279C48.5673 27.3176 48.6537 26.8793 48.6537 26.7032ZM54.6656 27.1949C54.6656 27.7275 54.2773 28.0194 53.5204 28.0194C53.0872 28.0194 52.6298 27.8695 52.6263 27.8684C52.5917 27.8559 52.5698 27.8252 52.5698 27.79V27.2937C52.5698 27.2778 52.5837 27.2642 52.6009 27.2642C52.6033 27.2642 52.6102 27.2654 52.6113 27.2654C52.7726 27.3165 53.2968 27.4448 53.5757 27.4448C53.7404 27.4448 53.8268 27.4209 53.8821 27.3664C53.9202 27.3289 53.9374 27.2892 53.9374 27.2404C53.9374 27.078 53.7312 27.0326 53.5307 26.9894C53.5054 26.9837 53.5169 26.9871 53.4489 26.9712C53.0111 26.869 52.5491 26.7634 52.5491 26.207C52.5491 25.9606 52.6539 25.755 52.8498 25.6131C53.0457 25.4711 53.328 25.3962 53.6667 25.3962C53.9708 25.3962 54.3326 25.495 54.4536 25.5324C54.4916 25.5449 54.5135 25.5779 54.5135 25.6108V26.1059C54.5124 26.1286 54.4882 26.1388 54.4709 26.1332C54.1241 26.0048 53.8061 25.9606 53.5791 25.9606C53.3982 25.9606 53.2807 26.0378 53.2807 26.1581C53.2807 26.2967 53.4524 26.3342 53.669 26.3819C53.6955 26.3875 53.8142 26.4137 53.8453 26.4205C54.0227 26.4591 54.2059 26.4988 54.3568 26.5954C54.5642 26.7294 54.6656 26.9247 54.6656 27.1915V27.1949ZM58.5898 27.9649C58.5806 27.9649 58.5737 27.9581 58.5737 27.949V26.4432C58.5737 26.1082 58.4584 25.9662 58.1877 25.9662C58.0909 25.9662 57.9745 26.0014 57.8582 26.0662C57.743 26.132 57.6531 26.1865 57.6208 26.2058C57.6116 26.2115 57.6024 26.2263 57.6024 26.2388V27.949C57.6024 27.9569 57.5955 27.9649 57.5863 27.9649H56.9054C56.8961 27.9649 56.8892 27.9581 56.8892 27.949V25.5268C56.8892 25.487 56.9226 25.4552 56.963 25.4552H57.5874C57.5966 25.4552 57.6035 25.462 57.6035 25.4711V25.6608C57.6035 25.6721 57.6128 25.6812 57.6254 25.6812C57.63 25.6812 57.6358 25.6789 57.6381 25.6778L57.6589 25.663C57.7349 25.6051 57.8513 25.5404 57.9308 25.5097C58.1013 25.445 58.2856 25.4087 58.4354 25.4087C58.9919 25.4087 59.2857 25.7232 59.2857 26.3194V27.9479C59.2857 27.9569 59.2788 27.9637 59.2695 27.9637H58.5898V27.9649ZM59.8468 27.9649C59.8387 27.9649 59.8318 27.9581 59.8318 27.949V24.2401C59.8318 24.2265 59.8341 24.2231 59.8525 24.2231C59.8952 24.2231 60.2742 24.4582 60.3975 24.5922C60.4885 24.691 60.5404 24.8261 60.5404 24.9612V27.949C60.5404 27.9569 60.5334 27.9649 60.5254 27.9649H59.8468ZM50.9787 21.5181C50.9661 21.5181 50.9534 21.5215 50.9396 21.5306C50.8255 21.6157 50.7241 21.7145 50.6365 21.8247C50.6112 21.8531 50.6112 21.886 50.6377 21.9201C50.7207 22.0257 50.8163 22.12 50.92 22.2017C50.9396 22.2165 50.9591 22.2244 50.9787 22.2244C50.9983 22.2244 51.0179 22.2165 51.0375 22.2017C51.1423 22.1211 51.2368 22.0268 51.3198 21.9212C51.3463 21.8872 51.3463 21.8542 51.3198 21.8236C51.2345 21.7145 51.1331 21.6157 51.0214 21.5328C51.0041 21.5226 50.9914 21.5181 50.9787 21.5181ZM50.9787 22.4277C50.9234 22.4277 50.8658 22.4288 50.8059 22.4322C50.7852 22.4322 50.7656 22.4402 50.7506 22.455C50.7287 22.4765 50.7218 22.5095 50.7218 22.5322C50.7241 22.648 50.731 23.2612 50.7368 23.6507C50.7391 23.8393 50.7414 23.9755 50.7414 23.9801C50.7414 24.0073 50.7621 24.0664 50.8255 24.0664H51.1343C51.1792 24.0664 51.2115 24.0346 51.2184 23.9835C51.2184 23.9823 51.2184 23.9812 51.2184 23.9801C51.2184 23.971 51.2253 23.4497 51.2368 22.5503V22.5322C51.2368 22.5151 51.2322 22.4788 51.208 22.455C51.193 22.4402 51.1734 22.4322 51.1516 22.4322C51.0928 22.43 51.0352 22.4277 50.981 22.4277H50.9787ZM51.7599 22.5106C51.6896 22.5106 51.6308 22.5492 51.6009 22.6162C51.5122 22.8115 51.4477 22.9887 51.3854 23.209C51.3785 23.2351 51.3808 23.2567 51.3935 23.2726C51.4016 23.2828 51.4189 23.2964 51.4523 23.2964H51.6931C51.7484 23.2964 51.768 23.268 51.7749 23.2442C51.814 23.1125 51.8428 23.0352 51.8924 22.9262C51.8924 22.9262 51.897 22.9183 51.912 22.9183C51.9177 22.9183 51.9235 22.9183 51.9292 22.9206L52.0514 22.9603C52.0652 22.9648 52.0744 22.9773 52.079 22.9864C52.0882 23.0046 52.0894 23.0296 52.0825 23.0477C52.0813 23.0511 51.8348 23.7291 51.7622 23.9551C51.7507 23.9903 51.753 24.0175 51.7679 24.0368C51.7818 24.055 51.8048 24.0641 51.8371 24.0641H52.1343C52.1839 24.0641 52.215 24.0448 52.23 24.0062C52.2403 23.9767 52.2565 23.9346 52.2749 23.8847L52.2818 23.8654C52.3717 23.6189 52.5065 23.2465 52.5353 23.1409C52.5837 22.9614 52.5975 22.765 52.3302 22.6673C52.2449 22.6367 52.1643 22.6094 52.0905 22.5878C51.9961 22.5594 51.9062 22.539 51.8267 22.5197L51.8163 22.5174C51.7968 22.5129 51.7783 22.5106 51.761 22.5106H51.7599ZM50.1964 22.5106C50.1791 22.5106 50.1607 22.5129 50.1434 22.5163L50.1308 22.5197C50.0513 22.5379 49.9614 22.5594 49.8669 22.5878C49.7943 22.6094 49.7137 22.6367 49.6273 22.6673C49.36 22.765 49.3738 22.9614 49.4222 23.1409C49.4498 23.2431 49.5766 23.5928 49.6826 23.8847C49.701 23.9346 49.716 23.9767 49.7264 24.0062C49.7402 24.0448 49.7724 24.0641 49.822 24.0641H50.1192C50.1596 24.0641 50.178 24.0493 50.1884 24.0357C50.2033 24.0164 50.2045 23.988 50.1941 23.9539C50.1215 23.7314 49.875 23.0534 49.8727 23.0466C49.8658 23.0284 49.8669 23.0035 49.8761 22.9853C49.8807 22.9762 49.8888 22.9637 49.9038 22.958L50.0271 22.9183C50.0271 22.9183 50.0374 22.916 50.0432 22.916C50.0559 22.916 50.0616 22.9217 50.0628 22.924C50.1135 23.0352 50.1423 23.1125 50.1803 23.2419C50.1872 23.2658 50.2079 23.2942 50.2621 23.2942H50.5029C50.5294 23.2942 50.549 23.2862 50.5617 23.2703C50.5732 23.2544 50.5766 23.234 50.5686 23.2067C50.5052 22.9841 50.4407 22.807 50.3531 22.6128C50.3393 22.581 50.2944 22.5072 50.1941 22.5072L50.1964 22.5106ZM52.0744 24.2901H49.8853C49.8082 24.2901 49.7436 24.3537 49.7436 24.4286V24.7C49.7436 24.7852 49.7805 24.8261 49.8565 24.8261H52.1032C52.1793 24.8261 52.2161 24.7852 52.2161 24.7V24.4286C52.2161 24.3537 52.1516 24.2901 52.0744 24.2901ZM62.6154 26.3887C62.6131 24.8738 59.7258 22.2505 56.6496 20.5789C53.101 18.6507 49.0627 17.514 47.732 18.2362C46.2158 19.0606 45.3851 23.1772 45.3839 26.3887C45.3839 29.6263 46.1674 33.6906 47.732 34.5411C49.1503 35.3111 53.0123 34.1743 56.6496 32.1984C59.7742 30.5007 62.6131 27.9774 62.6154 26.3887ZM48.7977 17.2812C51.0375 17.2812 54.6253 18.6768 57.0113 19.9725C58.3766 20.7141 59.9251 21.7963 61.1233 22.8978C62.2732 23.9539 63.3585 25.269 63.3596 26.3887C63.3585 27.4436 62.4886 28.6814 61.0899 29.9442C59.9032 31.0162 58.3605 32.0701 57.0102 32.8048C54.7059 34.0574 51.193 35.52 48.8772 35.52C48.2482 35.52 47.7308 35.4133 47.3414 35.2009C46.316 34.6433 45.6593 33.1432 45.271 31.6726C44.8539 30.0953 44.6396 28.1977 44.6396 26.3887C44.6396 24.6194 44.8712 22.7173 45.2756 21.1706C45.7676 19.2878 46.4819 18.0443 47.3426 17.5764C47.7043 17.38 48.194 17.28 48.7977 17.28" fill="white"/>
<path fill-rule="evenodd" clip-rule="evenodd" d="M64.3204 74.275H71.4194V40.8H64.3218L64.3204 74.275ZM53.9895 60.96C52.5373 60.96 51.3604 62.1418 51.3604 63.5993V74.4976H56.6201V63.5993C56.6201 62.1418 55.4419 60.96 53.9895 60.96V60.96Z" fill="#515165"/>
<path fill-rule="evenodd" clip-rule="evenodd" d="M71.04 74.275H78.1376V40.8H71.04V74.275Z" fill="#7C7E95"/>
<path fill-rule="evenodd" clip-rule="evenodd" d="M78.2402 74.275H85.3378V40.8H78.2402V74.275Z" fill="#515165"/>
<path fill-rule="evenodd" clip-rule="evenodd" d="M84.96 74.275H92.0576V40.8H84.96V74.275Z" fill="#7C7E95"/>
<path fill-rule="evenodd" clip-rule="evenodd" d="M92.1602 74.275H99.2577V40.8H92.1602V74.275Z" fill="#515165"/>
<path fill-rule="evenodd" clip-rule="evenodd" d="M99.3604 74.275H106.458V40.8H99.3604V74.275Z" fill="#7C7E95"/>
<path fill-rule="evenodd" clip-rule="evenodd" d="M106.561 74.275H113.66V40.8H106.562L106.561 74.275Z" fill="#515165"/>
</svg>
