<svg width="111" height="142" viewBox="0 0 111 142" fill="none" xmlns="http://www.w3.org/2000/svg">
<path fill-rule="evenodd" clip-rule="evenodd" d="M37.3235 46.6513C37.3235 50.2587 34.3981 53.1827 30.7902 53.1827C27.1832 53.1827 24.2578 50.2587 24.2578 46.6513C24.2578 43.044 27.1832 40.12 30.7902 40.12C34.3981 40.12 37.3235 43.044 37.3235 46.6513" fill="#CD8857"/>
<path fill-rule="evenodd" clip-rule="evenodd" d="M37.3235 46.6513C37.3235 50.2587 34.3981 53.1827 30.7902 53.1827C27.1832 53.1827 24.2578 50.2587 24.2578 46.6513C24.2578 43.044 27.1832 40.12 30.7902 40.12C34.3981 40.12 37.3235 43.044 37.3235 46.6513Z" stroke="#CD8857" stroke-width="1.9404"/>
<path fill-rule="evenodd" clip-rule="evenodd" d="M34.4436 62.0123C34.4436 65.6196 31.5183 68.5436 27.9103 68.5436C24.3033 68.5436 21.3779 65.6196 21.3779 62.0123C21.3779 58.4039 24.3033 55.48 27.9103 55.48C31.5183 55.48 34.4436 58.4039 34.4436 62.0123" fill="#CD8857"/>
<path fill-rule="evenodd" clip-rule="evenodd" d="M34.4436 62.0123C34.4436 65.6196 31.5183 68.5436 27.9103 68.5436C24.3033 68.5436 21.3779 65.6196 21.3779 62.0123C21.3779 58.4039 24.3033 55.48 27.9103 55.48C31.5183 55.48 34.4436 58.4039 34.4436 62.0123Z" stroke="#CD8857" stroke-width="1.9404"/>
<path fill-rule="evenodd" clip-rule="evenodd" d="M34.4436 75.9314C34.4436 79.5388 31.5183 82.4637 27.9103 82.4637C24.3033 82.4637 21.3779 79.5388 21.3779 75.9314C21.3779 72.324 24.3033 69.4 27.9103 69.4C31.5183 69.4 34.4436 72.324 34.4436 75.9314" fill="#CD8857"/>
<path fill-rule="evenodd" clip-rule="evenodd" d="M34.4436 75.9314C34.4436 79.5388 31.5183 82.4637 27.9103 82.4637C24.3033 82.4637 21.3779 79.5388 21.3779 75.9314C21.3779 72.324 24.3033 69.4 27.9103 69.4C31.5183 69.4 34.4436 72.324 34.4436 75.9314Z" stroke="#CD8857" stroke-width="1.9404"/>
<path fill-rule="evenodd" clip-rule="evenodd" d="M38.762 92.2523C38.762 95.8596 35.8376 98.7836 32.2296 98.7836C28.6226 98.7836 25.6973 95.8596 25.6973 92.2523C25.6973 88.6439 28.6226 85.72 32.2296 85.72C35.8376 85.72 38.762 88.6439 38.762 92.2523" fill="#CD8857"/>
<path fill-rule="evenodd" clip-rule="evenodd" d="M38.762 92.2523C38.762 95.8596 35.8376 98.7836 32.2296 98.7836C28.6226 98.7836 25.6973 95.8596 25.6973 92.2523C25.6973 88.6439 28.6226 85.72 32.2296 85.72C35.8376 85.72 38.762 88.6439 38.762 92.2523Z" stroke="#CD8857" stroke-width="1.9404"/>
<path fill-rule="evenodd" clip-rule="evenodd" d="M37.3121 106.512H74.5495C78.0478 106.512 80.8841 103.677 80.8841 100.179V18.1335C80.8841 14.6358 78.0478 11.7999 74.5495 11.7999H37.3121C33.8138 11.7999 30.9775 14.6358 30.9775 18.1335V100.179C30.9775 103.677 33.8138 106.512 37.3121 106.512" fill="#363546"/>
<path fill-rule="evenodd" clip-rule="evenodd" d="M33.8574 97.8699H77.2014V20.9199H33.8574V97.8699Z" fill="#F56900"/>
<path d="M52.412 58.0001C51.611 58.0001 50.9667 58.4443 50.9667 59.4446C50.9667 60.4226 51.611 60.8892 52.412 60.8892C53.2102 60.8892 53.8558 60.4226 53.8558 59.4446C53.8558 58.4443 53.2102 58.0001 52.412 58.0001ZM52.412 60.2022C52.0538 60.2022 51.7859 59.9301 51.7859 59.4446C51.7859 58.9165 52.0538 58.6856 52.412 58.6856C52.768 58.6856 53.0367 58.9165 53.0367 59.4446C53.0367 59.9301 52.768 60.2022 52.412 60.2022ZM57.6173 58.0253C57.6173 58.04 57.6292 58.0518 57.6439 58.0518H58.2518C58.3 58.0518 58.3392 58.0917 58.3392 58.1386V58.6646C58.3392 58.68 58.3273 58.6919 58.3126 58.6919H57.6439C57.6292 58.6919 57.6173 58.7038 57.6173 58.7185V59.7398C57.6173 60.1316 57.7656 60.2477 58.0132 60.2477C58.1293 60.2477 58.3119 60.1764 58.3385 60.1764C58.3532 60.1764 58.3658 60.1882 58.3658 60.2029V60.7066C58.3658 60.7444 58.3441 60.771 58.3203 60.7836C58.2098 60.843 58.0244 60.8836 57.7502 60.8836C57.271 60.8836 56.8261 60.6423 56.8261 59.8721V58.0959C56.8261 57.9385 56.8877 57.7888 56.9849 57.6825C57.1143 57.5398 57.5305 57.2726 57.5844 57.2726C57.6075 57.2726 57.6173 57.2795 57.6173 57.3012V58.0253ZM47.9524 58.1414C47.9524 58.0917 47.9923 58.0525 48.0419 58.0525H49.0954C50.1301 58.0525 50.6659 58.6737 50.6659 59.4775C50.6659 60.282 50.0664 60.8388 49.0787 60.8388H48.7709C48.7562 60.8388 48.7436 60.8507 48.7436 60.8661V62.1694C48.7436 62.191 48.7345 62.198 48.7107 62.198C48.6568 62.198 48.2406 61.9308 48.1112 61.7881C48.014 61.6811 47.9524 61.5314 47.9524 61.3747V58.1414ZM49.8845 59.4369C49.8845 59.0949 49.6635 58.7745 49.0794 58.7745H48.7695C48.7548 58.7745 48.7429 58.7864 48.7429 58.8018V60.0875C48.7429 60.1022 48.7548 60.1148 48.7695 60.1148H49.0947C49.7908 60.1148 49.8845 59.6314 49.8845 59.4369ZM56.419 59.9798C56.419 60.5667 55.9971 60.8892 55.1745 60.8892C54.7037 60.8892 54.2063 60.7241 54.2021 60.7227C54.165 60.7087 54.1406 60.6751 54.1406 60.6367V60.0896C54.1406 60.0714 54.1559 60.0574 54.1748 60.0574C54.1776 60.0574 54.1853 60.0588 54.186 60.0595C54.3616 60.1162 54.931 60.2575 55.2339 60.2575C55.413 60.2575 55.5068 60.2309 55.5669 60.1708C55.6082 60.1295 55.6271 60.0854 55.6271 60.0322C55.6271 59.8532 55.4025 59.8035 55.185 59.7559C55.1577 59.7503 55.1696 59.7531 55.0961 59.7356C54.6197 59.623 54.1175 59.5069 54.1175 58.8934C54.1175 58.6213 54.2315 58.3953 54.4449 58.2386C54.6575 58.0819 54.9646 58.0001 55.3326 58.0001C55.6635 58.0001 56.0559 58.1092 56.1874 58.1512C56.2287 58.1645 56.2525 58.2008 56.2525 58.2379V58.7836C56.2511 58.8088 56.2245 58.8206 56.2063 58.8136C55.8292 58.6723 55.4844 58.6227 55.2367 58.6227C55.0402 58.6227 54.9128 58.708 54.9128 58.8402C54.9128 58.9927 55.0989 59.034 55.3347 59.0872C55.3634 59.0935 55.4921 59.1228 55.5256 59.1298C55.7187 59.1725 55.9181 59.2159 56.0818 59.3229C56.3084 59.4712 56.419 59.686 56.419 59.9798ZM60.6841 60.829C60.675 60.829 60.6673 60.8213 60.6673 60.8122V59.1522C60.6673 58.7836 60.5421 58.6262 60.2483 58.6262C60.1433 58.6262 60.0167 58.6653 59.8908 58.7367C59.7656 58.8094 59.6676 58.8696 59.6327 58.8906C59.6229 58.8969 59.6124 58.9137 59.6124 58.927V60.8129C59.6124 60.822 59.6047 60.8297 59.5956 60.8297H58.8555C58.8464 60.8297 58.838 60.822 58.838 60.8129V58.1421C58.838 58.0987 58.8737 58.063 58.9177 58.063H59.5963C59.6054 58.063 59.6138 58.0707 59.6138 58.0798V58.2897C59.6138 58.3023 59.6243 58.3128 59.6369 58.3128C59.6418 58.3128 59.6481 58.31 59.6501 58.3086L59.6725 58.2918C59.7551 58.2281 59.8824 58.1561 59.9677 58.1232C60.1531 58.0525 60.3532 58.0113 60.5155 58.0113C61.1206 58.0113 61.4403 58.3589 61.4403 59.0158V60.8115C61.4403 60.8213 61.4326 60.8283 61.4228 60.8283H60.6841V60.829ZM62.051 60.829C62.0419 60.829 62.0342 60.8213 62.0342 60.8122V56.722C62.0342 56.7073 62.037 56.7031 62.0573 56.7031C62.1034 56.7031 62.5162 56.9627 62.6498 57.1096C62.7491 57.2187 62.8058 57.367 62.8058 57.5167V60.8122C62.8058 60.8213 62.7981 60.829 62.789 60.829H62.051V60.829ZM52.4113 53.7196C52.3973 53.7196 52.384 53.7238 52.3679 53.7336C52.2434 53.8273 52.1336 53.9357 52.0384 54.0575C52.0104 54.0889 52.0104 54.1253 52.0398 54.1631C52.1301 54.2799 52.2336 54.3841 52.3469 54.473C52.3679 54.4898 52.3889 54.4975 52.4106 54.4975C52.4323 54.4975 52.4533 54.4891 52.4742 54.4723C52.5876 54.3834 52.6911 54.2792 52.7813 54.1631C52.8107 54.1253 52.8107 54.0889 52.7813 54.0554C52.6883 53.935 52.5785 53.8266 52.4568 53.735C52.4393 53.7238 52.426 53.7196 52.4113 53.7196ZM52.4113 54.722C52.3518 54.722 52.2889 54.7234 52.2238 54.7262C52.2007 54.7262 52.1797 54.7346 52.1636 54.7514C52.1406 54.7745 52.1315 54.8116 52.1315 54.836C52.1336 54.9641 52.142 55.6398 52.1476 56.07C52.1504 56.2778 52.1518 56.4282 52.1524 56.4331C52.1524 56.4639 52.1748 56.5282 52.2441 56.5282H52.5792C52.6288 56.5282 52.6631 56.4933 52.6701 56.4373C52.6701 56.4359 52.6701 56.4345 52.6701 56.4331C52.6701 56.4226 52.6771 55.8483 52.6904 54.857V54.8374C52.6911 54.8186 52.6848 54.778 52.6589 54.7521C52.6428 54.7353 52.6218 54.7276 52.5974 54.7276C52.5344 54.7241 52.4714 54.722 52.4113 54.722ZM53.2612 54.8137C53.1843 54.8137 53.1213 54.8563 53.0884 54.9298C52.9919 55.1445 52.9219 55.3404 52.8541 55.5839C52.8464 55.6125 52.8492 55.6363 52.8625 55.6538C52.8716 55.6657 52.8898 55.6797 52.9261 55.6797H53.1878C53.2472 55.6797 53.2689 55.6482 53.2773 55.6223C53.32 55.4768 53.3508 55.3922 53.4053 55.2719C53.406 55.2705 53.4102 55.2628 53.4263 55.2628C53.4326 55.2628 53.4389 55.2635 53.4452 55.2656L53.5781 55.3096C53.5935 55.3152 53.6033 55.3285 53.6082 55.339C53.618 55.3593 53.6194 55.3866 53.6124 55.4069C53.611 55.4111 53.3438 56.1582 53.264 56.4072C53.2521 56.4457 53.2535 56.4758 53.2696 56.4982C53.2843 56.5184 53.3095 56.5289 53.3445 56.5289H53.6684C53.7215 56.5289 53.7565 56.508 53.7719 56.4653C53.7838 56.4331 53.8006 56.3862 53.8202 56.331L53.8279 56.31C53.9251 56.0386 54.0727 55.6272 54.1042 55.5104C54.1573 55.3124 54.172 55.0956 53.8817 54.9878C53.7894 54.9536 53.7019 54.9242 53.6215 54.8997C53.5194 54.8682 53.4207 54.8451 53.334 54.8249L53.3235 54.8221C53.2997 54.8158 53.2801 54.8137 53.2612 54.8137ZM51.5613 54.8137C51.5424 54.8137 51.5229 54.8158 51.504 54.8207L51.4907 54.8235C51.4039 54.8437 51.306 54.8668 51.2039 54.8983C51.1241 54.9228 51.0367 54.9522 50.9436 54.9864C50.6526 55.0942 50.668 55.311 50.7212 55.509C50.7513 55.6216 50.8884 56.0071 51.0045 56.3296C51.0248 56.3848 51.0409 56.4317 51.0528 56.4639C51.0682 56.5066 51.1031 56.5275 51.1563 56.5275H51.4802C51.5236 56.5275 51.5445 56.5108 51.555 56.4968C51.5711 56.4751 51.5725 56.445 51.5606 56.4065C51.4816 56.161 51.2144 55.4132 51.2116 55.4062C51.2046 55.3859 51.206 55.3593 51.2158 55.3383C51.2207 55.3278 51.2298 55.3145 51.2465 55.3089L51.3802 55.2649C51.3851 55.2635 51.3913 55.2628 51.3976 55.2628C51.4109 55.2628 51.4172 55.2684 51.4186 55.2719C51.4739 55.395 51.5054 55.4803 51.5466 55.6223C51.5543 55.6489 51.576 55.6797 51.6355 55.6797H51.8978C51.9265 55.6797 51.9482 55.6713 51.9615 55.6538C51.9748 55.6363 51.9776 55.6132 51.9692 55.5846C51.9006 55.3397 51.8307 55.1438 51.7348 54.9298C51.7187 54.8948 51.6705 54.8137 51.5613 54.8137ZM53.6026 56.7766H51.2235C51.1402 56.7766 51.0696 56.8465 51.0696 56.9298V57.2292C51.0696 57.3229 51.1094 57.3684 51.1927 57.3684H53.6341C53.7166 57.3684 53.7565 57.3229 53.7565 57.2292V56.9298C53.7565 56.8465 53.6858 56.7766 53.6026 56.7766ZM65.0597 59.0914C65.0569 57.4209 61.9188 54.5275 58.575 52.6843C54.7177 50.5569 50.328 49.3034 48.8821 50.1001C47.234 51.0095 46.3309 55.5489 46.3302 59.0914C46.3309 62.6625 47.1815 67.1438 48.8821 68.0819C50.4232 68.9311 54.6218 67.6776 58.575 65.4985C61.9712 63.6258 65.0569 60.843 65.0597 59.0914ZM50.0398 49.0466C52.4742 49.0466 56.3742 50.5856 58.9674 52.0155C60.4511 52.8333 62.1349 54.0267 63.4375 55.2411C64.6876 56.4058 65.867 57.856 65.8691 59.0914C65.867 60.2547 64.9226 61.6195 63.4025 63.013C62.1118 64.1952 60.4357 65.3579 58.9681 66.1672C56.463 67.5481 52.6449 69.1613 50.128 69.1613C49.4438 69.1613 48.8828 69.0431 48.4589 68.8094C47.3445 68.1952 46.6303 66.5401 46.2084 64.9186C45.7551 63.1788 45.5222 61.0865 45.5215 59.0921C45.5215 57.1403 45.7733 55.0431 46.2119 53.3376C46.7464 51.2607 47.5236 49.8903 48.4589 49.374C48.8513 49.1565 49.3837 49.0466 50.0398 49.0466Z" fill="#F7F7F8"/>
<path fill-rule="evenodd" clip-rule="evenodd" d="M91.7544 115.793C94.0497 112.458 95.6737 108.736 96.5625 104.833C96.9488 103.135 97.1935 101.41 97.2967 99.6691C99.0013 83.3825 94.1988 72.7937 92.1876 68.3783C88.4062 60.077 88.9509 55.5668 89.6448 50.0967L90.4108 44.0509C82.0717 43.2063 78.5922 48.4036 78.234 52.9747C77.693 59.8932 85.4424 79.7048 75.3714 87.9404C69.1972 92.9906 66.06 101.894 64.6479 107.296L42.0176 107.369L60.348 122.121L60.5383 122.004L69.0369 139.757H107.117L91.7544 115.793Z" fill="#CD8857"/>
<path fill-rule="evenodd" clip-rule="evenodd" d="M91.7544 115.793C94.0497 112.458 95.6737 108.736 96.5625 104.833C96.9488 103.135 97.1935 101.41 97.2967 99.6691C99.0013 83.3825 94.1988 72.7937 92.1876 68.3783C88.4062 60.077 88.9509 55.5668 89.6448 50.0967L90.4108 44.0509C82.0717 43.2063 78.5922 48.4036 78.234 52.9747C77.693 59.8932 85.4424 79.7048 75.3714 87.9404C69.1972 92.9906 66.0992 101.804 64.6872 107.206L42.0176 107.369L60.348 122.121L60.5383 122.004L69.0369 139.757H107.117L91.7544 115.793Z" stroke="#CD8857" stroke-width="1.9404"/>
<path fill-rule="evenodd" clip-rule="evenodd" d="M48.5682 113.057L40.0977 106.36H64.1025C64.1025 106.36 54.2429 106.956 52.1354 108.517C48.8881 110.923 48.6137 112.794 48.6137 112.794L48.5682 113.057Z" fill="#A86231"/>
<path fill-rule="evenodd" clip-rule="evenodd" d="M110.877 141.476L92.2557 115L60.6008 133.658C57.683 135.379 55.864 138.307 55.458 141.476H110.877Z" fill="#303DB9"/>
<path d="M25.2174 8.43996L21.8574 5.07996" stroke="#7C7E95" stroke-width="2" stroke-linecap="round" stroke-linejoin="round"/>
<path d="M32.658 5.80001V1.00001" stroke="#7C7E95" stroke-width="2" stroke-linecap="round" stroke-linejoin="round"/>
<path d="M23.0355 16.36H18.0176" stroke="#7C7E95" stroke-width="2" stroke-linecap="round" stroke-linejoin="round"/>
<path d="M25.2174 111.16L21.8574 114.52" stroke="#7C7E95" stroke-width="2" stroke-linecap="round" stroke-linejoin="round"/>
<path d="M32.658 113.8V118.6" stroke="#7C7E95" stroke-width="2" stroke-linecap="round" stroke-linejoin="round"/>
<path d="M23.0355 103.24H18.0176" stroke="#7C7E95" stroke-width="2" stroke-linecap="round" stroke-linejoin="round"/>
<path d="M85.6976 8.43996L89.0576 5.07996" stroke="#7C7E95" stroke-width="2" stroke-linecap="round" stroke-linejoin="round"/>
<path d="M78.258 5.80001V1.00001" stroke="#7C7E95" stroke-width="2" stroke-linecap="round" stroke-linejoin="round"/>
<path d="M87.8795 16.36H92.8975" stroke="#7C7E95" stroke-width="2" stroke-linecap="round" stroke-linejoin="round"/>
<path d="M97.9377 38.68V34.36" stroke="#7C7E95" stroke-width="2" stroke-linecap="round" stroke-linejoin="round"/>
<path d="M95.5597 36.5199H100.098" stroke="#7C7E95" stroke-width="2" stroke-linecap="round" stroke-linejoin="round"/>
<path d="M8.65746 95.32V91" stroke="#7C7E95" stroke-width="2" stroke-linecap="round" stroke-linejoin="round"/>
<path d="M6.27941 93.1599H10.8174" stroke="#7C7E95" stroke-width="2" stroke-linecap="round" stroke-linejoin="round"/>
<path d="M3.37719 21.4V17.08" stroke="#7C7E95" stroke-width="2" stroke-linecap="round" stroke-linejoin="round"/>
<path d="M1.00012 19.24H5.53809" stroke="#7C7E95" stroke-width="2" stroke-linecap="round" stroke-linejoin="round"/>
<circle cx="10.5775" cy="30.76" r="1" stroke="#7C7E95" stroke-width="1.36"/>
<circle cx="103.698" cy="10.5999" r="1" stroke="#7C7E95" stroke-width="1.36"/>
<circle cx="98.8978" cy="66.76" r="1" stroke="#7C7E95" stroke-width="1.36"/>
<circle cx="19.6976" cy="88.8399" r="1" stroke="#7C7E95" stroke-width="1.36"/>
</svg>
