<svg width="122" height="120" viewBox="0 0 122 120" fill="none" xmlns="http://www.w3.org/2000/svg">
<path fill-rule="evenodd" clip-rule="evenodd" d="M60.4805 119.4H121.683V86.3047H60.4805V119.4Z" fill="#BF9E7A"/>
<path fill-rule="evenodd" clip-rule="evenodd" d="M93.9734 95.885L85.9209 101.266V86.3047H93.9734V95.885Z" fill="#A86231"/>
<path fill-rule="evenodd" clip-rule="evenodd" d="M48.8381 110.531C47.162 87.4318 46.1919 61.5652 47.9285 41.7342C49.3633 25.3544 52.0066 20.7908 52.033 20.7469L51.9908 20.8118L47.2244 17.6423C46.8989 18.1254 43.9964 22.8449 42.3764 39.4898C40.6997 56.7174 40.9546 80.9966 43.0858 110.531H48.8381Z" fill="#1ADC6C"/>
<path fill-rule="evenodd" clip-rule="evenodd" d="M79.5194 55.3974C79.5314 55.4055 79.5323 55.4189 79.5218 55.4284C78.9573 55.9315 66.0295 67.3637 56.3291 68.3222C50.3517 68.9134 45.0391 64.4671 44.6608 58.4591C44.2864 52.5055 49.1671 47.5175 55.1651 47.2285C65.9287 46.7112 78.9179 55.0093 79.5194 55.3974" fill="#00BB53"/>
<path fill-rule="evenodd" clip-rule="evenodd" d="M9.603 74.1384C9.59676 74.1512 9.603 74.1636 9.6174 74.1665C10.3744 74.2976 27.6726 77.2358 36.6424 72.9439C42.1686 70.2995 44.4635 63.7108 41.6305 58.3885C38.823 53.1148 31.9388 51.4331 26.5532 54.346C16.8889 59.5739 9.92316 73.4908 9.603 74.1384" fill="#00BB53"/>
<path fill-rule="evenodd" clip-rule="evenodd" d="M70.3814 119.617H14.471L0 64.8477H84.8525L70.3814 119.617Z" fill="#6161FF"/>
<path fill-rule="evenodd" clip-rule="evenodd" d="M13.4404 38.6494C13.4404 38.6494 28.3406 33.021 36.8846 35.3898C41.9184 36.7859 44.8603 41.9714 43.4553 46.9718C42.0503 51.9722 36.8304 54.8947 31.7961 53.499C22.1611 50.8274 13.4404 38.6494 13.4404 38.6494" fill="#00BB53"/>
<path fill-rule="evenodd" clip-rule="evenodd" d="M23.04 19.3668C23.04 19.3668 35.1183 16.0839 41.618 18.5772C45.4479 20.0463 47.354 24.3215 45.8751 28.1256C44.3962 31.9306 40.0925 33.8236 36.2626 32.3545C28.9325 29.5432 23.04 19.3668 23.04 19.3668" fill="#00BB53"/>
<path fill-rule="evenodd" clip-rule="evenodd" d="M70.3884 11.6387C70.3884 11.6387 63.8542 22.3438 57.3684 24.993C53.5471 26.5537 49.1753 24.7418 47.6042 20.9463C46.0327 17.1503 47.8567 12.8074 51.678 11.2468C58.9918 8.25853 70.3884 11.6387 70.3884 11.6387" fill="#00BB53"/>
<path fill-rule="evenodd" clip-rule="evenodd" d="M73.5487 32.7673C73.5679 32.7773 73.5717 32.7969 73.5573 32.8131C73.0072 33.4225 63.6986 43.6407 56.0224 45.2634C51.3986 46.2409 46.852 43.3427 45.809 38.7772C44.6628 33.7624 48.3856 29.0104 53.5125 28.3024C62.0287 27.127 72.8637 32.4269 73.5487 32.7673" fill="#00BB53"/>
<path fill-rule="evenodd" clip-rule="evenodd" d="M37.1646 0C37.1646 0 44.524 4.4888 46.3264 8.91322C47.3886 11.5205 46.1224 14.4892 43.4982 15.5444C40.8736 16.5996 37.8846 15.3417 36.8229 12.7345C34.7896 7.74453 37.1646 0 37.1646 0" fill="#00BB53"/>
</svg>
